<!-- Generated by IcoMoon.io -->
<svg version="1.1" xmlns="http://www.w3.org/2000/svg" width="1024" height="1024" viewBox="0 0 1024 1024">
<title></title>
<g id="icomoon-ignore">
</g>
<path fill="#ccc" d="M16.941 246.945c0-22.344 12.764-41.265 35.22-52.491l427.602-187.282c19.347-9.561 43.355-9.561 62.702 0l429.977 186.717c20.118 8.748 34.621 31.129 34.621 53.052v484.427c0 22.344-12.899 41.471-33.798 52.696l-429.056 232.769c-19.356 9.561-43.649 9.561-62.996 0l-428.921-232.769c-22.456-11.23-35.355-30.353-35.355-52.696v-484.427zM543.867 536.988v270.574c0 17.084-13.853 30.942-30.942 30.942-8.252 0.164-16.219-3.039-22.059-8.879s-9.047-13.802-8.879-22.063v-270.574l-296.911-171.381c-14.615-8.603-19.585-27.365-11.146-42.069 4.011-7.158 10.753-12.376 18.688-14.48 7.925-2.095 16.373-0.898 23.396 3.334l296.911 170.142 292.38-168.599c7.027-4.231 15.471-5.428 23.4-3.334 7.925 2.099 14.667 7.322 18.683 14.48 8.448 14.704 3.478 33.471-11.141 42.069l-292.38 168.599v1.239zM78.815 250.335v477.76c0.421 0.248 0.837 0.463 1.145 0.617l0.93 0.468 428.196 232.376c1.992 0.753 5.255 0.748 7.252-0.005l427.42-231.881c0.369-0.201 0.921-0.519 1.426-0.87v-479.289l-430.132-186.866c-2.062-1.019-5.821-1.019-7.883 0l-1.281 0.631-427.013 187.020c-0.019 0.009-0.042 0.023-0.061 0.033z"></path>
</svg>
