<?xml version="1.0" standalone="no"?><!DOCTYPE svg PUBLIC "-//W3C//DTD SVG 1.1//EN" "http://www.w3.org/Graphics/SVG/1.1/DTD/svg11.dtd"><svg t="1650418520024" class="icon" viewBox="0 0 1024 1024" version="1.1" xmlns="http://www.w3.org/2000/svg" p-id="8642" xmlns:xlink="http://www.w3.org/1999/xlink" width="200" height="200"><defs><style type="text/css"></style></defs><path d="M64 448h384V64H64v384zM192 192h128v128H192V192z m384-128v384h384V64H576z m256 256h-128V192h128v128zM64 960h384V576H64v384z m128-256h128v128H192v-128z m704-128h64v256h-192v-64h-64v192h-128V576h192v64h128v-64z m0 320h64v64h-64v-64z m-128 0h64v64h-64v-64z" fill="" p-id="8643"></path></svg>